<svg xmlns="http://www.w3.org/2000/svg" xmlns:xlink="http://www.w3.org/1999/xlink" width="1080" zoomAndPan="magnify" viewBox="0 0 810 809.999993" height="1080" preserveAspectRatio="xMidYMid meet" version="1.0"><defs><g/></defs><path fill="#2a82a8" d="M 405 0 C 181.324219 0 0 181.324219 0 405 C 0 628.675781 181.324219 810 405 810 C 628.675781 810 810 628.675781 810 405 C 810 181.324219 628.675781 0 405 0 " fill-opacity="1" fill-rule="nonzero"/><g fill="#000000" fill-opacity="1"><g transform="translate(94.28906, 564.126503)"><g><path d="M 254.25 0 L 174.296875 -127.78125 L 78.40625 -127.78125 L 78.40625 0 L 36.6875 0 L 36.6875 -307.75 L 181.515625 -307.75 C 216.171875 -307.75 242.925781 -299.992188 261.78125 -284.484375 C 280.632812 -268.984375 290.0625 -247.398438 290.0625 -219.734375 C 290.0625 -196.867188 283.398438 -177.644531 270.078125 -162.0625 C 256.753906 -146.488281 238.367188 -136.660156 214.921875 -132.578125 L 302.296875 0 Z M 248.125 -219.296875 C 248.125 -237.203125 242.046875 -250.851562 229.890625 -260.25 C 217.734375 -269.644531 200.222656 -274.34375 177.359375 -274.34375 L 78.40625 -274.34375 L 78.40625 -160.765625 L 179.109375 -160.765625 C 201.097656 -160.765625 218.097656 -165.894531 230.109375 -176.15625 C 242.117188 -186.425781 248.125 -200.804688 248.125 -219.296875 Z M 248.125 -219.296875 "/></g></g><g transform="translate(417.336442, 564.126503)"><g><path d="M 274.78125 -86.71875 C 274.78125 -59.34375 264.800781 -38.046875 244.84375 -22.828125 C 224.894531 -7.609375 197.15625 0 161.625 0 L 36.6875 0 L 36.6875 -307.75 L 148.53125 -307.75 C 220.75 -307.75 256.859375 -282.851562 256.859375 -233.0625 C 256.859375 -214.851562 251.757812 -199.5625 241.5625 -187.1875 C 231.375 -174.8125 216.960938 -166.507812 198.328125 -162.28125 C 222.785156 -159.375 241.640625 -151.1875 254.890625 -137.71875 C 268.148438 -124.25 274.78125 -107.25 274.78125 -86.71875 Z M 214.921875 -228.03125 C 214.921875 -244.632812 209.242188 -256.503906 197.890625 -263.640625 C 186.535156 -270.773438 170.082031 -274.34375 148.53125 -274.34375 L 78.40625 -274.34375 L 78.40625 -176.921875 L 148.53125 -176.921875 C 170.8125 -176.921875 187.445312 -181.109375 198.4375 -189.484375 C 209.425781 -197.859375 214.921875 -210.707031 214.921875 -228.03125 Z M 232.625 -89.984375 C 232.625 -126.242188 207.140625 -144.375 156.171875 -144.375 L 78.40625 -144.375 L 78.40625 -33.421875 L 159.453125 -33.421875 C 184.929688 -33.421875 203.492188 -38.148438 215.140625 -47.609375 C 226.796875 -57.078125 232.625 -71.203125 232.625 -89.984375 Z M 232.625 -89.984375 "/></g></g></g></svg>