<svg id="visual" viewBox="0 0 960 540" width="960" height="540" xmlns="http://www.w3.org/2000/svg" xmlns:xlink="http://www.w3.org/1999/xlink" version="1.1"><rect x="0" y="0" width="960" height="540" fill="#f4f5f6"></rect><path d="M0 195L22.8 191.8C45.7 188.7 91.3 182.3 137 185.8C182.7 189.3 228.3 202.7 274 209.5C319.7 216.3 365.3 216.7 411.2 211C457 205.3 503 193.7 548.8 186.7C594.7 179.7 640.3 177.3 686 183.8C731.7 190.3 777.3 205.7 823 206.3C868.7 207 914.3 193 937.2 186L960 179L960 0L937.2 0C914.3 0 868.7 0 823 0C777.3 0 731.7 0 686 0C640.3 0 594.7 0 548.8 0C503 0 457 0 411.2 0C365.3 0 319.7 0 274 0C228.3 0 182.7 0 137 0C91.3 0 45.7 0 22.8 0L0 0Z" fill="#2a82a8"></path><path d="M0 192L22.8 189.7C45.7 187.3 91.3 182.7 137 176C182.7 169.3 228.3 160.7 274 159C319.7 157.3 365.3 162.7 411.2 165C457 167.3 503 166.7 548.8 164.7C594.7 162.7 640.3 159.3 686 164.2C731.7 169 777.3 182 823 185.7C868.7 189.3 914.3 183.7 937.2 180.8L960 178L960 0L937.2 0C914.3 0 868.7 0 823 0C777.3 0 731.7 0 686 0C640.3 0 594.7 0 548.8 0C503 0 457 0 411.2 0C365.3 0 319.7 0 274 0C228.3 0 182.7 0 137 0C91.3 0 45.7 0 22.8 0L0 0Z" fill="#22759b"></path><path d="M0 168L22.8 161.8C45.7 155.7 91.3 143.3 137 146C182.7 148.7 228.3 166.3 274 168.2C319.7 170 365.3 156 411.2 147.2C457 138.3 503 134.7 548.8 141.8C594.7 149 640.3 167 686 166.2C731.7 165.3 777.3 145.7 823 143.3C868.7 141 914.3 156 937.2 163.5L960 171L960 0L937.2 0C914.3 0 868.7 0 823 0C777.3 0 731.7 0 686 0C640.3 0 594.7 0 548.8 0C503 0 457 0 411.2 0C365.3 0 319.7 0 274 0C228.3 0 182.7 0 137 0C91.3 0 45.7 0 22.8 0L0 0Z" fill="#1a688d"></path><path d="M0 167L22.8 160.7C45.7 154.3 91.3 141.7 137 133.7C182.7 125.7 228.3 122.3 274 123.8C319.7 125.3 365.3 131.7 411.2 131.8C457 132 503 126 548.8 123C594.7 120 640.3 120 686 127.5C731.7 135 777.3 150 823 154.5C868.7 159 914.3 153 937.2 150L960 147L960 0L937.2 0C914.3 0 868.7 0 823 0C777.3 0 731.7 0 686 0C640.3 0 594.7 0 548.8 0C503 0 457 0 411.2 0C365.3 0 319.7 0 274 0C228.3 0 182.7 0 137 0C91.3 0 45.7 0 22.8 0L0 0Z" fill="#125c80"></path><path d="M0 125L22.8 128.5C45.7 132 91.3 139 137 143.2C182.7 147.3 228.3 148.7 274 141C319.7 133.3 365.3 116.7 411.2 110.7C457 104.7 503 109.3 548.8 114.2C594.7 119 640.3 124 686 121.7C731.7 119.3 777.3 109.7 823 107.2C868.7 104.7 914.3 109.3 937.2 111.7L960 114L960 0L937.2 0C914.3 0 868.7 0 823 0C777.3 0 731.7 0 686 0C640.3 0 594.7 0 548.8 0C503 0 457 0 411.2 0C365.3 0 319.7 0 274 0C228.3 0 182.7 0 137 0C91.3 0 45.7 0 22.8 0L0 0Z" fill="#095073"></path><path d="M0 81L22.8 83C45.7 85 91.3 89 137 96.5C182.7 104 228.3 115 274 116C319.7 117 365.3 108 411.2 108.5C457 109 503 119 548.8 117.3C594.7 115.7 640.3 102.3 686 96C731.7 89.7 777.3 90.3 823 94C868.7 97.7 914.3 104.3 937.2 107.7L960 111L960 0L937.2 0C914.3 0 868.7 0 823 0C777.3 0 731.7 0 686 0C640.3 0 594.7 0 548.8 0C503 0 457 0 411.2 0C365.3 0 319.7 0 274 0C228.3 0 182.7 0 137 0C91.3 0 45.7 0 22.8 0L0 0Z" fill="#004466"></path><path d="M0 90L22.8 90.5C45.7 91 91.3 92 137 88.7C182.7 85.3 228.3 77.7 274 76.5C319.7 75.3 365.3 80.7 411.2 81.5C457 82.3 503 78.7 548.8 77.7C594.7 76.7 640.3 78.3 686 80.8C731.7 83.3 777.3 86.7 823 91.7C868.7 96.7 914.3 103.3 937.2 106.7L960 110L960 0L937.2 0C914.3 0 868.7 0 823 0C777.3 0 731.7 0 686 0C640.3 0 594.7 0 548.8 0C503 0 457 0 411.2 0C365.3 0 319.7 0 274 0C228.3 0 182.7 0 137 0C91.3 0 45.7 0 22.8 0L0 0Z" fill="#003859"></path><path d="M0 59L22.8 62.3C45.7 65.7 91.3 72.3 137 77.2C182.7 82 228.3 85 274 84.5C319.7 84 365.3 80 411.2 74.7C457 69.3 503 62.7 548.8 59.8C594.7 57 640.3 58 686 60.5C731.7 63 777.3 67 823 71.5C868.7 76 914.3 81 937.2 83.5L960 86L960 0L937.2 0C914.3 0 868.7 0 823 0C777.3 0 731.7 0 686 0C640.3 0 594.7 0 548.8 0C503 0 457 0 411.2 0C365.3 0 319.7 0 274 0C228.3 0 182.7 0 137 0C91.3 0 45.7 0 22.8 0L0 0Z" fill="#002c4c"></path><path d="M0 69L22.8 64C45.7 59 91.3 49 137 46.5C182.7 44 228.3 49 274 50.5C319.7 52 365.3 50 411.2 51.7C457 53.3 503 58.7 548.8 57.2C594.7 55.7 640.3 47.3 686 45.3C731.7 43.3 777.3 47.7 823 51.8C868.7 56 914.3 60 937.2 62L960 64L960 0L937.2 0C914.3 0 868.7 0 823 0C777.3 0 731.7 0 686 0C640.3 0 594.7 0 548.8 0C503 0 457 0 411.2 0C365.3 0 319.7 0 274 0C228.3 0 182.7 0 137 0C91.3 0 45.7 0 22.8 0L0 0Z" fill="#00213f"></path><path d="M0 35L22.8 35C45.7 35 91.3 35 137 35C182.7 35 228.3 35 274 33.5C319.7 32 365.3 29 411.2 29.5C457 30 503 34 548.8 35.8C594.7 37.7 640.3 37.3 686 39.2C731.7 41 777.3 45 823 47C868.7 49 914.3 49 937.2 49L960 49L960 0L937.2 0C914.3 0 868.7 0 823 0C777.3 0 731.7 0 686 0C640.3 0 594.7 0 548.8 0C503 0 457 0 411.2 0C365.3 0 319.7 0 274 0C228.3 0 182.7 0 137 0C91.3 0 45.7 0 22.8 0L0 0Z" fill="#001633"></path><path d="M0 17L22.8 16C45.7 15 91.3 13 137 12.7C182.7 12.3 228.3 13.7 274 13.8C319.7 14 365.3 13 411.2 15.8C457 18.7 503 25.3 548.8 25.7C594.7 26 640.3 20 686 17C731.7 14 777.3 14 823 13.7C868.7 13.3 914.3 12.7 937.2 12.3L960 12L960 0L937.2 0C914.3 0 868.7 0 823 0C777.3 0 731.7 0 686 0C640.3 0 594.7 0 548.8 0C503 0 457 0 411.2 0C365.3 0 319.7 0 274 0C228.3 0 182.7 0 137 0C91.3 0 45.7 0 22.8 0L0 0Z" fill="#000000"></path></svg>